<?xml version="1.0" standalone="no"?><!DOCTYPE svg PUBLIC "-//W3C//DTD SVG 1.1//EN" "http://www.w3.org/Graphics/SVG/1.1/DTD/svg11.dtd"><svg t="1614655093777" class="icon" viewBox="0 0 1024 1024" version="1.1" xmlns="http://www.w3.org/2000/svg" p-id="2543" xmlns:xlink="http://www.w3.org/1999/xlink" width="200" height="200"><defs><style type="text/css"></style></defs><path d="M512 1024A512 512 0 1 1 1024 512 512.910222 512.910222 0 0 1 512 1024z m0-955.733333A443.733333 443.733333 0 1 0 955.733333 512a444.188444 444.188444 0 0 0-443.733333-443.733333z" fill="#20002A" p-id="2544"></path><path d="M721.351111 765.041778a34.588444 34.588444 0 0 1-24.576-10.467556l-222.094222-225.28a34.133333 34.133333 0 0 1 0-48.241778 34.133333 34.133333 0 0 1 48.241778 0l222.094222 225.28a34.588444 34.588444 0 0 1-24.120889 58.254223z" fill="#20002A" p-id="2545"></path><path d="M500.622222 534.755556h-3.640889a33.678222 33.678222 0 0 1-30.037333-37.774223l23.210667-207.075555a34.133333 34.133333 0 0 1 67.811555 7.736889l-23.210666 207.075555a34.588444 34.588444 0 0 1-34.133334 30.037334z" fill="#20002A" p-id="2546"></path></svg>